<?xml version="1.0" encoding="utf-8"?>
<!-- Generator: Adobe Illustrator 17.0.0, SVG Export Plug-In . SVG Version: 6.00 Build 0)  -->
<!DOCTYPE svg PUBLIC "-//W3C//DTD SVG 1.1//EN" "http://www.w3.org/Graphics/SVG/1.1/DTD/svg11.dtd">
<svg version="1.1" id="Background_xA0_Image_1_" xmlns="http://www.w3.org/2000/svg" xmlns:xlink="http://www.w3.org/1999/xlink"
	 x="0px" y="0px" width="90px" height="60px" viewBox="0 0 90 60" enable-background="new 0 0 90 60" xml:space="preserve">
<rect fill="#BAC1C9" width="90" height="60"/>
<rect x="7" y="7" fill="#FFFFFF" width="76" height="46"/>
<g>
	<path fill="#BAC1C9" d="M48.665,29.61c-0.791,0.456-1.286,1.38-1.286,1.769c0,0.295-0.229,0.644-0.536,0.644h-3.216
		c-0.295,0-0.482-0.456-0.482-0.751v-0.603c0-1.621,1.608-3.015,2.787-3.55c1.032-0.469,1.46-0.911,1.46-1.769
		c0-0.75-0.978-1.42-2.063-1.42c-0.603,0-1.152,0.188-1.447,0.388c-0.321,0.228-0.643,0.549-1.434,1.541
		c-0.107,0.134-0.268,0.214-0.415,0.214c-0.121,0-0.228-0.041-0.335-0.107L39.5,24.292c-0.228-0.174-0.281-0.469-0.134-0.71
		c1.447-2.398,3.483-3.563,6.216-3.563c2.868,0,6.083,2.291,6.083,5.359C51.666,27.922,49.938,28.9,48.665,29.61z M47.433,36.631
		c0,0.295-0.241,0.536-0.536,0.536H43.68c-0.294,0-0.536-0.241-0.536-0.536v-3.216c0-0.294,0.241-0.535,0.536-0.535h3.216
		c0.295,0,0.536,0.241,0.536,0.535L47.433,36.631L47.433,36.631z"/>
</g>
</svg>
